<svg id="_0521_user_interface_1" xmlns="http://www.w3.org/2000/svg" viewBox="0 0 500 500" data-imageid="user-interface-1-80" imageName="User Interface 1" class="illustrations_image" style="width: 166px;"><defs><style>.cls-1{fill:#fff;}.cls-2{fill:#f4a28c;}.cls-3{opacity:.46;}.cls-3,.cls-4,.cls-5,.cls-6,.cls-7{fill:none;}.cls-8{fill:#a5a5a5;}.cls-9{fill:#ce8172;}.cls-10{fill:#e6e6e6;}.cls-4{opacity:.08;}.cls-5{opacity:.12;}.cls-6{opacity:.31;}.cls-7{opacity:.3;}.cls-11{fill:#24285b;}.cls-12{fill:#ffd200;}.cls-13{fill:#68e1fd;}</style></defs><g id="bg" class="cls-7"><path class="cls-10" d="m387.84,62.04c50.82,25.71,99.89,94.3,102.67,181.55,2.77,86.96-12.59,175.75-103.97,208.2-85.84,30.49-290.61,37.78-346.87-71.81C-13.38,276.67.46,111.11,89.69,59.99c62.55-35.83,198.91-48.17,298.16,2.05Z"/></g><g id="panel"><rect class="cls-10" x="15.95" y="131.79" width="107.94" height="83.47"/><rect class="cls-11" x="15.95" y="115.62" width="107.94" height="16.17"/><g class="cls-5"><path d="m65.75,196.9c-3.47-.66-6.65-1.93-9.68-4.02-.94.99-1.91,1.96-2.82,2.98-.47.52-.8.47-1.26,0-1.55-1.57-3.11-3.13-4.7-4.66-.46-.44-.39-.73.03-1.14.98-.96,1.93-1.96,2.83-2.89-.81-1.58-1.71-3.12-2.41-4.76-.56-1.33-.92-2.75-1.28-4.15-.13-.53-.34-.66-.83-.64-1.19.03-2.39,0-3.58.02-.58.01-.77-.21-.77-.78.02-2.23.02-4.46,0-6.7,0-.58.22-.78.79-.76,1.22.03,2.44.03,3.66,0,.23,0,.61-.23.65-.42.69-3.27,1.97-6.27,3.93-9.08-1-.98-1.98-1.98-3-2.93-.46-.42-.45-.7,0-1.13,1.6-1.55,3.19-3.12,4.76-4.71.43-.44.74-.43,1.15.02.93,1.01,1.89,1.99,2.85,2.99.74-.45,1.35-.83,1.97-1.19,2.2-1.26,4.54-2.15,7.03-2.63.53-.1.73-.29.71-.86-.05-1.17,0-2.34-.02-3.5-.01-.57.19-.78.77-.77,2.26.02,4.52.03,6.77,0,.63,0,.81.24.8.83-.03,1.35,0,2.69,0,4.13,3.46.67,6.67,1.92,9.66,4.02.97-1.01,1.94-1.99,2.87-3,.44-.48.76-.45,1.21,0,1.55,1.57,3.11,3.13,4.7,4.66.48.46.43.75-.02,1.19-.98.93-1.9,1.91-2.91,2.93.25.4.53.83.79,1.26,1.44,2.32,2.44,4.81,2.98,7.48.13.65.39.77.98.75,1.11-.04,2.23.01,3.35-.02.62-.02.88.17.87.84-.03,2.18-.03,4.36,0,6.54,0,.64-.19.89-.84.87-1.22-.03-2.44-.03-3.66.01-.21,0-.56.27-.6.47-.69,3.24-1.96,6.22-3.88,8.98.97.98,1.91,1.98,2.91,2.91.49.46.54.76.03,1.25-1.59,1.52-3.16,3.08-4.71,4.65-.42.43-.73.46-1.15,0-.93-1.01-1.9-1.99-2.88-3.02-2.99,2.05-6.18,3.35-9.67,4,0,1.4-.02,2.75,0,4.1.01.62-.16.89-.83.88-2.23-.03-4.46-.04-6.7,0-.68.01-.84-.27-.83-.88.03-1.35,0-2.69,0-4.09Zm4.23-37.28c-7.76-.02-14.08,6.16-14.1,13.8-.03,7.74,6.21,13.98,13.98,14,7.8.02,14.09-6.17,14.1-13.88.02-7.67-6.25-13.91-13.98-13.92Z"/></g></g><g id="tasks"><rect class="cls-10" x="15.6" y="347.89" width="94.95" height="103.38"/><rect class="cls-8" x="30.22" y="360.77" width="16.51" height="16.51"/><path class="cls-1" d="m37.37,373.74h0c-.33,0-.65-.17-.83-.45l-2.35-3.56c-.3-.46-.18-1.08.28-1.39.46-.3,1.08-.18,1.39.28l1.52,2.3,3.45-5.14c.31-.46.93-.58,1.39-.27.46.31.58.93.27,1.39l-4.29,6.38c-.19.28-.5.44-.83.44Z"/><rect class="cls-1" x="55.71" y="366.17" width="38.25" height="6.57"/><rect class="cls-8" x="30.22" y="390.79" width="16.51" height="16.51"/><path class="cls-1" d="m37.37,403.76h0c-.33,0-.65-.17-.83-.45l-2.35-3.56c-.3-.46-.18-1.08.28-1.39.46-.3,1.08-.18,1.39.28l1.52,2.3,3.45-5.14c.31-.46.93-.58,1.39-.27.46.31.58.93.27,1.39l-4.29,6.38c-.19.28-.5.44-.83.44Z"/><rect class="cls-1" x="55.71" y="396.2" width="38.25" height="6.57"/><rect class="cls-8" x="30.22" y="418.84" width="16.51" height="16.51"/><path class="cls-1" d="m37.37,431.81h0c-.33,0-.65-.17-.83-.45l-2.35-3.56c-.3-.46-.18-1.08.28-1.39.46-.3,1.08-.18,1.39.28l1.52,2.3,3.45-5.14c.31-.46.93-.58,1.39-.27.46.31.58.93.27,1.39l-4.29,6.38c-.19.28-.5.44-.83.44Z"/><rect class="cls-1" x="55.71" y="424.24" width="38.25" height="6.57"/></g><g id="profile"><rect class="cls-10" x="302.6" y="110.53" width="163.67" height="163.67"/><rect class="cls-8" x="356.65" y="133.17" width="134.73" height="59.29"/><rect class="cls-10" x="373.3" y="147.32" width="27.57" height="27.57"/><rect class="cls-10" x="411.54" y="148.7" width="65.64" height="8.48"/><rect class="cls-10" x="411.54" y="165.06" width="54.21" height="8.48"/></g><g id="person"><path class="cls-2" d="m354.37,156.48s5.54-3.27,6.65-4.69c1.11-1.42,3-9.03,4.5-10.57s4.54-1.46,4.92-.15.12,3.57.12,3.57c0,0,1.69-2.04,1.81-1.11s-1.15,6.44-4.67,10.99c-3.52,4.56-9.78,10.92-9.78,10.92l-3.54-8.96Z"/><rect class="cls-12" x="72.42" y="270.06" width="66.42" height="43.8" transform="translate(101.84 -18.5) rotate(19.19)"/><path class="cls-13" d="m235.54,162.64s85.41,14.3,121.24-9.11l5.28,8.4s-14.68,22.43-56.51,32.27c-41.82,9.84-66.07,4.92-66.07,4.92l-3.94-36.48Z"/><g class="cls-3"><path class="cls-1" d="m235.54,162.64s85.41,14.3,121.24-9.11l5.28,8.4s-14.68,22.43-56.51,32.27c-41.82,9.84-66.07,4.92-66.07,4.92l-3.94-36.48Z"/></g><path class="cls-13" d="m157.07,385.1s-2.05,4.72.89,7.99.84,7.17-2.79,5.28-7.56-12.51-7.56-12.51l5.75-5.59,3.71,4.83Z"/><path class="cls-13" d="m286.73,338.47s4.45,2.58,8.03.04c3.58-2.54,7.22,0,4.93,3.38s-13.3,6.06-13.3,6.06l-4.89-6.36,5.23-3.13Z"/><path class="cls-2" d="m231.79,125.41s-1.31,8.74-4.12,14.09c-1.14,2.17-3.86,3.02-6.02,1.85-2.67-1.45-5.87-4.19-5.73-8.96l-.77-8.12s-.3-5.11,5.38-7.43c5.68-2.32,12.32,3.29,11.26,8.58Z"/><polygon class="cls-2" points="215.29 125.73 204.19 152.48 219.37 157.55 221.35 136.05 215.29 125.73"/><path class="cls-11" d="m229.57,125.25c-1.52-.28-4.27-.95-7.78-2.51,0,0,1.79,4.39-1.89,7.86-3.68,3.48-7.61.64-7.61.64l2.79-11.01c.71-3.23,3.13-5.83,6.31-6.74,1.3-.37,2.72-.71,4.12-.92,3.48-.51,7.63,2.72,11,1.26,1.48-.64,3.1.54,2.96,2.15-.31,3.48-2.18,8.62-7.16,9.37-.91.14-1.84.07-2.74-.1Z"/><path class="cls-2" d="m220.89,130.57s.73-3.32-1.82-3.67c-2.55-.34-3.63,4.46-.36,5.71l2.18-2.05Z"/><path class="cls-2" d="m230.68,130.87l1.6,3.89c.4.96-.34,2-1.38,1.95l-3.43-.17,3.21-5.67Z"/><g class="cls-6"><path class="cls-9" d="m221.12,140.77s-2.73-1.27-4.31-4.21c0,0-1.01,5.2,3.42,11.65l.89-7.44Z"/></g><path class="cls-13" d="m204.19,152.48l10.33,3.44c2.52.84,5.07,1.56,7.67,2.1,8.33,1.72,32.52,9,37.12,36.11,5.57,32.87-40.41,77.52-40.41,77.52l-53.55-12.69s-37.72-121.95,38.84-106.49Z"/><path class="cls-11" d="m165.35,258.97s-7.27,33.98,18.44,38.5,69.68-15.5,96.53,45.1l9.44-5.57s-6.26-55.38-65.04-71.43l-59.37-6.61Z"/><path class="cls-11" d="m173.81,273.79s33.41,52.25-23.86,101.71l7.11,9.6s61.57-28.21,55.6-106.82l-38.85-4.49Z"/><g class="cls-4"><path d="m204.17,182.22s.25,13.43-16.13,30.61c-16.39,17.18,6.48,49.39,6.48,49.39l-29.16-3.25s-11.29-39.91-9.06-65.85c2.24-25.93,46.41-10.78,46.41-10.78l1.46-.13Z"/></g><path class="cls-13" d="m175.04,151.44c-32.2,1.93-99.71,16.46-70.95,106.93l14.24-1.26s-4.22-68.07,55.12-65.45c2.22.1,4.43.12,6.65-.06,9.91-.83,33.62-4.83,23.72-24.16-5.43-10.6-16.89-16.71-28.78-16Z"/><g class="cls-3"><path class="cls-1" d="m175.04,151.44c-32.2,1.93-99.71,16.46-70.95,106.93l14.24-1.26s-4.22-68.07,55.12-65.45c2.22.1,4.43.12,6.65-.06,9.91-.83,33.62-4.83,23.72-24.16-5.43-10.6-16.89-16.71-28.78-16Z"/></g><path class="cls-2" d="m115.8,257.34s2.28,7.44.07,13.89c-2.21,6.45-6.93,8.02-11.06,5.84-4.13-2.18,3.94-13.08,3.94-13.08l-2.6-5.79,9.65-.85Z"/></g><g id="button1"><rect class="cls-10" x="295.99" y="289.26" width="180.58" height="51.16" rx="17.51" ry="17.51"/><path class="cls-8" d="m334.83,307.09h6.2c1.23,0,2.14.05,2.75.15s1.14.32,1.62.64.87.76,1.19,1.3.48,1.15.48,1.82c0,.73-.2,1.39-.59,2s-.92,1.06-1.59,1.37c.95.28,1.67.74,2.18,1.41s.76,1.44.76,2.34c0,.71-.16,1.39-.49,2.06s-.78,1.2-1.34,1.6-1.27.64-2.1.74c-.52.06-1.78.09-3.78.11h-5.28v-15.52Zm3.13,2.58v3.59h2.05c1.22,0,1.98-.02,2.28-.05.54-.06.96-.25,1.26-.56s.46-.71.46-1.21-.13-.87-.4-1.17-.66-.48-1.18-.55c-.31-.04-1.2-.05-2.68-.05h-1.8Zm0,6.17v4.15h2.9c1.13,0,1.85-.03,2.15-.1.47-.08.85-.29,1.14-.62s.44-.77.44-1.32c0-.47-.11-.86-.34-1.19s-.55-.56-.98-.71-1.35-.22-2.78-.22h-2.53Z"/><path class="cls-8" d="m350.46,307.09h3.13v8.41c0,1.33.04,2.2.12,2.59.13.64.45,1.15.96,1.53s1.19.58,2.07.58,1.56-.18,2.01-.55.72-.81.82-1.34.14-1.41.14-2.64v-8.59h3.13v8.15c0,1.86-.08,3.18-.25,3.95s-.48,1.42-.94,1.95-1.06.95-1.83,1.26-1.76.47-2.99.47c-1.48,0-2.61-.17-3.37-.51s-1.37-.79-1.82-1.33-.74-1.12-.88-1.72c-.2-.89-.31-2.2-.31-3.94v-8.28Z"/><path class="cls-8" d="m369.63,322.6v-12.89h-4.6v-2.63h12.33v2.63h-4.59v12.89h-3.13Z"/><path class="cls-8" d="m382.87,322.6v-12.89h-4.6v-2.63h12.33v2.63h-4.59v12.89h-3.13Z"/><path class="cls-8" d="m391.6,314.94c0-1.58.24-2.91.71-3.98.35-.79.83-1.5,1.44-2.13s1.28-1.09,2.01-1.4c.97-.41,2.08-.61,3.35-.61,2.29,0,4.12.71,5.49,2.13s2.06,3.39,2.06,5.92-.68,4.47-2.04,5.88-3.18,2.12-5.46,2.12-4.14-.7-5.5-2.11-2.04-3.35-2.04-5.82Zm3.23-.11c0,1.76.41,3.09,1.22,4s1.84,1.36,3.09,1.36,2.27-.45,3.08-1.35,1.2-2.25,1.2-4.05-.39-3.11-1.17-3.98-1.82-1.31-3.11-1.31-2.33.44-3.12,1.33-1.19,2.22-1.19,4.01Z"/><path class="cls-8" d="m409.13,322.6v-15.52h3.05l6.35,10.36v-10.36h2.91v15.52h-3.14l-6.26-10.12v10.12h-2.91Z"/><path class="cls-8" d="m437.73,322.6h-2.97v-11.21c-1.09,1.02-2.37,1.77-3.84,2.25v-2.7c.78-.25,1.62-.74,2.53-1.44s1.53-1.54,1.87-2.48h2.41v15.58Z"/></g><g id="button2"><rect class="cls-10" x="122.71" y="402.84" width="180.58" height="51.16" rx="17.51" ry="17.51"/><path class="cls-8" d="m160.34,420.66h6.2c1.23,0,2.14.05,2.75.15s1.14.32,1.62.64.87.76,1.19,1.3.48,1.15.48,1.82c0,.73-.2,1.39-.59,2s-.92,1.06-1.59,1.37c.95.28,1.67.74,2.18,1.41s.76,1.44.76,2.34c0,.71-.16,1.39-.49,2.06s-.78,1.2-1.34,1.6-1.27.64-2.1.74c-.52.06-1.78.09-3.78.11h-5.28v-15.52Zm3.13,2.58v3.59h2.05c1.22,0,1.98-.02,2.28-.05.54-.06.96-.25,1.26-.56s.46-.71.46-1.21-.13-.87-.4-1.17-.66-.48-1.18-.55c-.31-.04-1.2-.05-2.68-.05h-1.8Zm0,6.17v4.15h2.9c1.13,0,1.85-.03,2.15-.1.47-.08.85-.29,1.14-.62s.44-.77.44-1.32c0-.47-.11-.86-.34-1.19s-.55-.56-.98-.71-1.35-.22-2.78-.22h-2.53Z"/><path class="cls-8" d="m175.96,420.66h3.13v8.41c0,1.33.04,2.2.12,2.59.13.64.45,1.15.96,1.53s1.19.58,2.07.58,1.56-.18,2.01-.55.72-.81.82-1.34.14-1.41.14-2.64v-8.59h3.13v8.15c0,1.86-.08,3.18-.25,3.95s-.48,1.42-.94,1.95-1.06.95-1.83,1.26-1.76.47-2.99.47c-1.48,0-2.61-.17-3.37-.51s-1.37-.79-1.82-1.33-.74-1.12-.88-1.72c-.2-.89-.31-2.2-.31-3.94v-8.28Z"/><path class="cls-8" d="m195.13,436.18v-12.89h-4.6v-2.63h12.33v2.63h-4.59v12.89h-3.13Z"/><path class="cls-8" d="m208.37,436.18v-12.89h-4.6v-2.63h12.33v2.63h-4.59v12.89h-3.13Z"/><path class="cls-8" d="m217.1,428.51c0-1.58.24-2.91.71-3.98.35-.79.83-1.5,1.44-2.13s1.28-1.09,2.01-1.4c.97-.41,2.08-.61,3.35-.61,2.29,0,4.12.71,5.49,2.13s2.06,3.39,2.06,5.92-.68,4.47-2.04,5.88-3.18,2.12-5.46,2.12-4.14-.7-5.5-2.11-2.04-3.35-2.04-5.82Zm3.23-.11c0,1.76.41,3.09,1.22,4s1.84,1.36,3.09,1.36,2.27-.45,3.08-1.35,1.2-2.25,1.2-4.05-.39-3.11-1.17-3.98-1.82-1.31-3.11-1.31-2.33.44-3.12,1.33-1.19,2.22-1.19,4.01Z"/><path class="cls-8" d="m234.63,436.18v-15.52h3.05l6.35,10.36v-10.36h2.91v15.52h-3.14l-6.26-10.12v10.12h-2.91Z"/><path class="cls-8" d="m265.66,433.41v2.76h-10.43c.11-1.04.45-2.03,1.02-2.97s1.68-2.18,3.35-3.72c1.34-1.25,2.16-2.1,2.47-2.54.41-.61.61-1.22.61-1.82,0-.66-.18-1.17-.53-1.53s-.85-.53-1.48-.53-1.12.19-1.48.56-.58,1-.64,1.86l-2.96-.3c.18-1.64.73-2.81,1.66-3.53s2.1-1.07,3.49-1.07c1.53,0,2.73.41,3.61,1.24s1.31,1.85,1.31,3.08c0,.7-.13,1.36-.38,2s-.65,1.29-1.19,1.98c-.36.46-1.01,1.12-1.95,1.98s-1.53,1.43-1.78,1.71-.45.56-.61.83h5.91Z"/></g><g id="button3"><rect class="cls-10" x="209.35" y="346.05" width="180.58" height="51.16" rx="17.51" ry="17.51"/><path class="cls-8" d="m246.9,363.87h6.2c1.23,0,2.14.05,2.75.15s1.14.32,1.62.64.87.76,1.19,1.3.48,1.15.48,1.82c0,.73-.2,1.39-.59,2s-.92,1.06-1.59,1.37c.95.28,1.67.74,2.18,1.41s.76,1.44.76,2.34c0,.71-.16,1.39-.49,2.06s-.78,1.2-1.34,1.6-1.27.64-2.1.74c-.52.06-1.78.09-3.78.11h-5.28v-15.52Zm3.13,2.58v3.59h2.05c1.22,0,1.98-.02,2.28-.05.54-.06.96-.25,1.26-.56s.46-.71.46-1.21-.13-.87-.4-1.17-.66-.48-1.18-.55c-.31-.04-1.2-.05-2.68-.05h-1.8Zm0,6.17v4.15h2.9c1.13,0,1.85-.03,2.15-.1.47-.08.85-.29,1.14-.62s.44-.77.44-1.32c0-.47-.11-.86-.34-1.19s-.55-.56-.98-.71-1.35-.22-2.78-.22h-2.53Z"/><path class="cls-8" d="m262.52,363.87h3.13v8.41c0,1.33.04,2.2.12,2.59.13.64.45,1.15.96,1.53s1.19.58,2.07.58,1.56-.18,2.01-.55.72-.81.82-1.34.14-1.41.14-2.64v-8.59h3.13v8.15c0,1.86-.08,3.18-.25,3.95s-.48,1.42-.94,1.95-1.06.95-1.83,1.26-1.76.47-2.99.47c-1.48,0-2.61-.17-3.37-.51s-1.37-.79-1.82-1.33-.74-1.12-.88-1.72c-.2-.89-.31-2.2-.31-3.94v-8.28Z"/><path class="cls-8" d="m281.69,379.39v-12.89h-4.6v-2.63h12.33v2.63h-4.59v12.89h-3.13Z"/><path class="cls-8" d="m294.94,379.39v-12.89h-4.6v-2.63h12.33v2.63h-4.59v12.89h-3.13Z"/><path class="cls-8" d="m303.66,371.73c0-1.58.24-2.91.71-3.98.35-.79.83-1.5,1.44-2.13s1.28-1.09,2.01-1.4c.97-.41,2.08-.61,3.35-.61,2.29,0,4.12.71,5.49,2.13s2.06,3.39,2.06,5.92-.68,4.47-2.04,5.88-3.18,2.12-5.46,2.12-4.14-.7-5.5-2.11-2.04-3.35-2.04-5.82Zm3.23-.11c0,1.76.41,3.09,1.22,4s1.84,1.36,3.09,1.36,2.27-.45,3.08-1.35,1.2-2.25,1.2-4.05-.39-3.11-1.17-3.98-1.82-1.31-3.11-1.31-2.33.44-3.12,1.33-1.19,2.22-1.19,4.01Z"/><path class="cls-8" d="m321.19,379.39v-15.52h3.05l6.35,10.36v-10.36h2.91v15.52h-3.14l-6.26-10.12v10.12h-2.91Z"/><path class="cls-8" d="m342.07,375.27l2.88-.35c.09.73.34,1.29.74,1.68s.89.58,1.46.58c.61,0,1.13-.23,1.55-.7s.63-1.09.63-1.88c0-.75-.2-1.34-.6-1.78s-.89-.66-1.47-.66c-.38,0-.84.07-1.37.22l.33-2.42c.8.02,1.42-.15,1.84-.52s.64-.86.64-1.48c0-.52-.16-.94-.47-1.25s-.72-.47-1.24-.47-.94.18-1.3.53-.58.87-.66,1.55l-2.74-.47c.19-.94.48-1.69.86-2.25s.92-1,1.61-1.32,1.46-.48,2.31-.48c1.46,0,2.63.47,3.51,1.4.73.76,1.09,1.62,1.09,2.58,0,1.36-.74,2.45-2.23,3.26.89.19,1.6.62,2.13,1.28s.8,1.46.8,2.4c0,1.36-.5,2.52-1.49,3.48s-2.23,1.44-3.72,1.44c-1.4,0-2.57-.4-3.49-1.21s-1.46-1.86-1.61-3.17Z"/></g><g id="setting"><rect class="cls-10" x="331.92" y="436.6" width="149.46" height="8.42"/><rect class="cls-10" x="394.82" y="396.86" width="96.55" height="5.44"/><rect class="cls-8" x="452.85" y="388.77" width="21.62" height="21.62"/><rect class="cls-8" x="367.7" y="424.08" width="33.46" height="33.46"/></g></svg>